<svg width="73" height="67" viewBox="0 0 73 67" fill="none" xmlns="http://www.w3.org/2000/svg">
<rect y="14" width="73" height="53" rx="10" fill="#37475B"/>
<rect x="9" y="7" width="55" height="5" fill="#37475B"/>
<rect x="13" width="46" height="5" fill="#37475B"/>
<path d="M19 59C19.9115 57.2839 25.3282 47.2813 39.7032 21C41.6788 24.0413 42.5135 28.5405 42.9155 34.8033C43.2157 39.4789 41.139 43.973 38 48.5C34.861 53.027 30.5879 56.8402 19 59Z" fill="#FFF4F4" stroke="white"/>
<path d="M54 58L46.1101 39C43.0299 43.4024 43.0299 44.561 43.0299 46.1829V46.1829C42.8517 48.0571 43.4785 49.9228 44.6757 51.9756C47.7837 57.3049 52.4061 58 54 58Z" fill="#FFFEFE" stroke="white"/>
</svg>
